<?xml version="1.0" encoding="iso-8859-1"?>
<!-- Generator: Adobe Illustrator 16.0.0, SVG Export Plug-In . SVG Version: 6.00 Build 0)  -->
<!DOCTYPE svg PUBLIC "-//W3C//DTD SVG 1.1//EN" "http://www.w3.org/Graphics/SVG/1.1/DTD/svg11.dtd">
<svg version="1.1" id="Capa_1" xmlns="http://www.w3.org/2000/svg" xmlns:xlink="http://www.w3.org/1999/xlink" x="0px" y="0px"
	 width="56.48px" height="56.48px" viewBox="0 0 56.48 56.48" style="enable-background:new 0 0 56.48 56.48;" xml:space="preserve"
	>
<g>
	<path d="M14.83,28.076c-0.204,0.969-0.218,1.969-0.774,2.824c-0.105,0.163-0.244,0.312-0.393,0.439
		c-0.245,0.209-0.534,0.301-0.852,0.174c-0.316-0.129-0.43-0.416-0.449-0.717c-0.065-0.978,0.274-1.803,1.025-2.435
		C13.787,28.027,14.261,27.917,14.83,28.076z M26.11,28.05c-0.303,0.069-0.53,0.26-0.712,0.504c-0.407,0.552-0.571,1.182-0.59,1.854
		c0,0.091-0.006,0.183,0.001,0.272c0.048,0.612,0.487,1.012,1.064,0.959c0.322-0.03,0.577-0.199,0.771-0.446
		c0.521-0.661,0.725-1.427,0.654-2.251C27.243,28.269,26.733,27.908,26.11,28.05z M8.411,25.982
		c-0.416-0.148-0.846-0.116-1.272-0.06c-0.052,0.008-0.123,0.087-0.135,0.144c-0.151,0.768-0.294,1.535-0.457,2.4
		c0.359,0,0.679,0.027,0.992-0.007c0.607-0.065,1.1-0.34,1.371-0.919C9.219,26.886,8.997,26.19,8.411,25.982z M56.48,11.393v33.695
		c0,0.803-0.65,1.454-1.454,1.454H1.454C0.65,46.542,0,45.89,0,45.087V11.393c0-0.803,0.65-1.454,1.454-1.454h53.572
		C55.83,9.939,56.48,10.591,56.48,11.393z M17.104,21.05c0.013,0.155,0.026,0.312,0.054,0.466c0.189,1.069,0.372,2.14,0.575,3.207
		c0.159,0.834,0.333,1.666,0.522,2.494c0.062,0.269,0.17,0.532,0.298,0.777c0.098,0.186,0.237,0.172,0.367,0.001
		c0.055-0.07,0.114-0.144,0.144-0.226c0.28-0.767,0.426-1.559,0.442-2.377c-0.022-0.263-0.036-0.527-0.067-0.789
		c-0.16-1.359-0.746-2.519-1.678-3.507c-0.108-0.116-0.265-0.201-0.415-0.256C17.191,20.785,17.09,20.873,17.104,21.05z
		 M10.762,26.348c-0.113-0.791-0.778-1.462-1.736-1.698c-1.097-0.271-2.197-0.159-3.296,0.007c-0.145,0.022-0.186,0.119-0.212,0.259
		c-0.42,2.221-0.848,4.44-1.271,6.66c-0.077,0.402-0.146,0.807-0.226,1.248c0.562,0,1.088,0.004,1.613-0.009
		c0.042-0.001,0.104-0.113,0.116-0.181c0.17-0.857,0.338-1.717,0.494-2.576c0.03-0.166,0.083-0.213,0.259-0.195
		c0.746,0.068,1.48,0.014,2.2-0.225C10.073,29.188,10.991,27.926,10.762,26.348z M15.938,32.579c0.04-0.626,0.07-1.256,0.172-1.874
		c0.19-1.163,0.427-2.318,0.647-3.476c0.033-0.174,0.006-0.285-0.195-0.314c-0.498-0.068-0.993-0.187-1.492-0.215
		c-0.977-0.055-1.919,0.117-2.741,0.678c-1.31,0.894-1.85,2.178-1.787,3.73c0.029,0.739,0.318,1.366,1.022,1.688
		c0.712,0.328,1.415,0.219,2.029-0.255c0.296-0.228,0.529-0.536,0.824-0.844c-0.02,0.308-0.031,0.601-0.058,0.892
		c-0.018,0.182,0.044,0.252,0.231,0.244c0.363-0.011,0.729-0.011,1.092,0.001C15.881,32.841,15.926,32.767,15.938,32.579z
		 M19.392,31.765c1.137-1.61,2.44-3.086,3.834-4.482c1.316-1.32,2.665-2.606,4.326-3.497c0.763-0.409,1.538-0.806,2.338-1.134
		c1.377-0.566,2.812-0.953,4.291-1.173c0.156-0.022,0.369-0.147,0.42-0.277c0.043-0.112-0.178-0.449-0.178-0.449
		c-0.81-1.387-2.658-1.031-2.658-1.031c-0.148,0.032-0.297,0.068-0.447,0.097c-0.896,0.168-1.745,0.477-2.559,0.889
		c-1.764,0.894-3.344,2.049-4.764,3.415c-0.944,0.908-1.861,1.849-2.745,2.817c-1.553,1.702-2.882,3.571-3.943,5.623
		c-0.547,1.058-1.035,2.144-1.26,3.321c-0.042,0.217,0.027,0.469,0.098,0.688c0.029,0.089,0.189,0.154,0.302,0.188
		c0.03,0.01,0.121-0.135,0.161-0.219c0.26-0.561,0.463-1.154,0.78-1.681C18.021,33.808,18.683,32.769,19.392,31.765z M29.125,28.955
		c-0.045-0.722-0.33-1.329-0.917-1.765c-0.617-0.458-1.319-0.552-2.071-0.469c-2.512,0.279-3.538,2.935-3.004,4.636
		c0.326,1.035,1.211,1.611,2.765,1.607c1.07-0.031,2.128-0.635,2.792-1.877C29.045,30.423,29.172,29.704,29.125,28.955z
		 M35.578,27.948c-0.072-0.65-0.511-1.117-1.146-1.221c-0.768-0.126-1.435,0.098-2.014,0.603c-0.158,0.138-0.309,0.285-0.48,0.446
		c0.025-0.314,0.049-0.618,0.074-0.935c-0.517,0-0.992,0-1.489,0c-0.366,1.993-0.729,3.971-1.101,5.986
		c0.574,0,1.094,0.007,1.611-0.009c0.059-0.002,0.148-0.121,0.162-0.197c0.129-0.646,0.245-1.296,0.359-1.943
		c0.104-0.596,0.211-1.188,0.517-1.722c0.208-0.364,0.459-0.69,0.883-0.825c0.438-0.141,0.767,0.069,0.815,0.52
		c0.015,0.13,0.023,0.266,0.004,0.395c-0.122,0.756-0.252,1.512-0.385,2.266c-0.088,0.492-0.186,0.982-0.276,1.472
		c0.048,0.022,0.069,0.04,0.092,0.04c0.504,0.004,1.009,0.013,1.513,0c0.058-0.002,0.146-0.117,0.162-0.191
		c0.172-0.848,0.332-1.697,0.494-2.548C35.508,29.378,35.658,28.673,35.578,27.948z M41.846,28.375
		c-0.056-0.77-0.472-1.325-1.215-1.546c-1.115-0.332-2.14-0.099-3.015,0.646c-1.063,0.903-1.462,2.101-1.31,3.465
		c0.107,0.964,0.633,1.654,1.597,1.902c1.032,0.268,2.049,0.129,3.028-0.273c0.067-0.027,0.147-0.141,0.145-0.211
		c-0.018-0.358-0.062-0.717-0.096-1.071c-0.042,0-0.061-0.004-0.074,0.001c-0.062,0.021-0.124,0.045-0.186,0.068
		c-0.564,0.216-1.146,0.312-1.75,0.238c-0.621-0.076-1.033-0.508-0.994-1.117c0.388,0,0.768,0.018,1.146-0.004
		c0.604-0.036,1.197-0.139,1.746-0.411C41.57,29.712,41.9,29.132,41.846,28.375z M47.7,28.394c-0.048-0.792-0.464-1.354-1.246-1.57
		c-1.276-0.352-2.391-0.011-3.291,0.944c-0.838,0.889-1.146,1.977-1,3.178c0.113,0.94,0.61,1.626,1.552,1.884
		c1.049,0.286,2.078,0.146,3.074-0.263c0.068-0.027,0.146-0.142,0.143-0.212c-0.019-0.357-0.062-0.715-0.101-1.094
		c-0.122,0.045-0.214,0.08-0.306,0.113c-0.551,0.202-1.117,0.289-1.703,0.219c-0.627-0.076-1.041-0.518-0.984-1.095
		c0.174,0,0.338,0.003,0.502,0c0.795-0.017,1.586-0.067,2.322-0.409C47.395,29.75,47.747,29.167,47.7,28.394z M52.459,26.708
		c-1.113-0.116-1.736,0.526-2.277,1.321c0.031-0.391,0.063-0.781,0.097-1.198c-0.483,0-0.931-0.006-1.374,0.008
		c-0.051,0.002-0.139,0.11-0.143,0.174c-0.125,1.55-0.44,3.068-0.744,4.588c-0.077,0.395-0.145,0.789-0.223,1.224
		c0.577,0,1.119,0.004,1.661-0.008c0.042-0.001,0.103-0.112,0.116-0.181c0.169-0.832,0.301-1.672,0.502-2.496
		c0.289-1.184,0.773-1.594,1.932-1.746c0.051-0.008,0.127-0.061,0.137-0.103C52.252,27.778,52.35,27.263,52.459,26.708z
		 M39.768,27.983c-0.701-0.17-1.524,0.442-1.617,1.221c0.453,0.093,1.378-0.019,1.732-0.203c0.244-0.127,0.367-0.337,0.33-0.582
		C40.174,28.167,40.006,28.041,39.768,27.983z M45.641,27.989c-0.696-0.192-1.559,0.442-1.637,1.265
		c0.373-0.025,0.729-0.029,1.075-0.076c0.231-0.031,0.468-0.103,0.683-0.196c0.23-0.101,0.34-0.31,0.304-0.567
		C46.032,28.168,45.864,28.05,45.641,27.989z"/>
</g>
<g>
</g>
<g>
</g>
<g>
</g>
<g>
</g>
<g>
</g>
<g>
</g>
<g>
</g>
<g>
</g>
<g>
</g>
<g>
</g>
<g>
</g>
<g>
</g>
<g>
</g>
<g>
</g>
<g>
</g>
</svg>
