<?xml version="1.0" encoding="utf-8"?>
<!-- Generator: Adobe Illustrator 19.0.0, SVG Export Plug-In . SVG Version: 6.00 Build 0)  -->
<svg version="1.1" id="Слой_1" xmlns="http://www.w3.org/2000/svg" xmlns:xlink="http://www.w3.org/1999/xlink" x="0px" y="0px"
	 width="350px" height="350px" viewBox="160 -160 350 350" style="enable-background:new 160 -160 350 350;" xml:space="preserve">
<style type="text/css">
	.st0{fill:#0E0F0D;}
	.st1{fill:#E1C5A2;}
	.st2{fill:#A89983;}
	.st3{fill:#FFFFFF;}
	.st4{fill:#E0D896;}
	.st5{fill:#D7C184;}
	.st6{fill:#9F8F78;}
	.st7{fill:#6E6A67;}
	.st8{fill:#93232C;}
	.st9{fill:#731B2A;}
</style>
<g>
	<path class="st0" d="M500.6-34.1c-0.1-1.2-0.4-2.5-0.7-3.6c-0.3-1.2-0.5-2.3-0.9-3.6l-0.9-1.4c-3.8-3-7.9-5.2-12.1-7.3
		c-3.4-1.7-6.9-3-10.6-4.3c-9.9-27.5-26.8-51.7-49.3-68.7c-23.1-17.5-50.3-26.8-78.6-26.8s-55.4,9.3-78.6,26.8
		c-22,16.8-39,41.2-48.9,68.7c-3.5,1.3-7,2.7-10.6,4.3c-4.2,2-8.3,4.3-12.1,7.3l-0.9,1.4c-0.4,1.3-0.7,2.5-0.9,3.6
		c-0.3,1.2-0.4,2.3-0.7,3.6c-0.4,2.3-0.5,4.8-0.7,7.3c-0.3,4.8-0.1,9.6,0.4,14.5c0.5,4.8,1.4,9.6,2.7,14.3c0.7,2.3,1.4,4.7,2.3,7
		c0.4,1.2,0.9,2.3,1.4,3.4c0.3,0.5,0.5,1.2,0.9,1.7c0.7,1.2,0.8,1.4,1,1.8l1.3,1.2c0.8,0.4,1.4,0.8,2.2,1L209,19
		c0.4,0.1,0.8,0.4,1.2,0.5c-9.8,9.1-20.5,20.9-29.7,35.4l-11.6,18.4L185.1,59c0.3-0.3,13.9-12.1,36.9-25.5l0.3,2.6
		c-1.4,0.8-8.7,4.6-10.8,6.4c-3.5,3-3.6,7.6-2.7,16c0.5,4.3,2.1,12.9,4.3,20.6c3.8,13.4,6.6,15.8,9,16.3c1,0.3,2.5,0.4,4.2,0.4
		c4.4,0,10-0.9,13.7-2c4.3,13.3,10.4,25.4,17.9,36c-0.4,0.1-0.7,0.3-1,0.3c-4.4-2.1-20.1-9.3-25.3-11.6l-10.9-5l6.5,10.2
		c0.5,0.8,11.6,18.1,20.7,30c8.6,10.9,20.2,22.2,42.4,22.2c2.6,0,5.5-0.1,8.3-0.5c6.5-0.8,11.5-1.3,15.2-1.8c23.2,8.5,48.7,9,73-0.1
		c6.6-2.5,12.6-5.6,18.2-9c9.4-2.2,19.5-4.7,24.6-6.1c0.8-0.3,1.8-0.5,2.9-0.7c7-1.6,18.8-4.3,25-16.9c6.3-12.6,16.7-32.1,16.7-32.2
		l4.8-9l-9.4,4c-0.5,0.3-12.4,5.3-18.6,8.6c4.3-9.9,6.8-18.1,7.7-21.2c3.5,0.8,8.6,0.8,12.4,0.8c1.8,0,3.8-0.3,5-0.7
		c2.5-0.7,4.3-2.2,7.9-16c2.1-8.1,3.5-16.8,3.9-21.2c0.8-8.7,0.5-13.4-3-16.4c-1.8-1.6-7-4.3-9.6-5.7c1.4-0.7,2.2-0.4,2.2-0.4
		l2.3-9.1c0.8-0.4,1.7-0.8,2.7-1.2c1.4-0.5,2.9-1.2,4.3-1.8l2.1-0.9c0.8-0.4,1.4-0.7,2.2-1l1.3-1.2c0.3-0.4,0.4-0.7,0.5-0.9
		c0.8-1.4,1-2,1.3-2.6c0.5-1.2,1-2.3,1.4-3.4c0.9-2.3,1.7-4.7,2.3-7c1.3-4.7,2.2-9.5,2.7-14.3c0.5-4.8,0.7-9.6,0.4-14.5
		C501.3-29.3,501-31.7,500.6-34.1z"/>
	<g transform="translate(22.000000, 5.000000)">
		<path class="st1" d="M341.2,148.8c-1.8,0.3-3.5,0.5-5.3,0.7c-1.2,0-2.3,0.1-3.4,0.1H332c1.3-3,2.3-5.5,3.1-7.2
			C336.7,144.2,338.8,146.4,341.2,148.8"/>
		<path class="st2" d="M338.9,12.5c-2.7,2.2-5.7,4.3-8.7,6.1L320,24.7c-6.4,0.8-11.9,2.3-12.3,2.5c-0.1,0-0.4,0.1-0.5,0.3
			c-0.5,0.3-0.9,0.8-1,1.3l-10.3,34L240.8,75l-17.3-12.1L218.4,22c9.9-1.8,23.1-3.9,39-5.7c-1.7,2.1-3.4,4.2-5,6.4L243,36.2
			l13.8-9.1c0.3-0.1,9-5.9,23.3-12.9c14.3-1,30-1.7,46.9-1.7C331,12.3,335,12.5,338.9,12.5L338.9,12.5z M253.1,58.6
			c3.9-2.1,8.3-1.8,15.2-1.8c0.8,0,1.6,0,2.3,0c0.7,0,1.4,0,2.1,0c7.2-0.1,13,0.7,13-10.6c-0.1-11.2-5.1-20.3-12.3-20.2
			c-7.2,0-14.1,9.3-13.7,20.5c0.1,2.9,0.5,5.1,1.2,6.5C254.9,54.6,253.2,58.3,253.1,58.6L253.1,58.6z"/>
		<path class="st2" d="M434.6,21.9l-5,34.8L412,68.9l-55.1-6.3l-10.3-33.9c-0.3-0.8-0.8-1.3-1.6-1.6c-0.4-0.1-7.2-2.1-14.3-2.7
			l1.3-0.1c1.2-0.1,20.2-2.5,42.9-10.3C400.1,16.1,420.6,19.2,434.6,21.9L434.6,21.9z M399.4,54c-0.1-0.3-1.6-4.8-8.2-4
			c0.8-1.7,1-3.9,0.9-7c-0.9-11.2-7.4-20.1-14.6-19.8c-7.2,0.3-11.7,9.5-11.3,20.7s6.4,11.1,13.6,10.8
			C389.4,54.7,394.6,51.7,399.4,54L399.4,54z"/>
		<path class="st3" d="M380.5,33.8c0,2-1.6,3.6-3.5,3.8c-2,0-3.6-1.6-3.6-3.5c0-2,1.6-3.6,3.5-3.8C378.8,30.2,380.5,31.9,380.5,33.8
			"/>
		<path class="st3" d="M278.2,36.6c0,2-1.6,3.6-3.5,3.8c-2.1,0-3.6-1.6-3.8-3.5c0-2,1.6-3.6,3.5-3.8
			C276.5,32.9,278.2,34.5,278.2,36.6"/>
		<path class="st1" d="M458.7,37.1c-0.9-0.7-3.8-2.3-6.5-3.9l-4.6,32.3c-0.1,0.7-0.4,1.2-0.9,1.6l-6.6,4.6c-0.1,0.8-0.3,1.4-0.4,2.1
			c6.5,1.6,12.8-3.1,16.3-6.5c1.7-6.4,3.1-13.9,3.5-19.4C460.3,39.6,459.5,37.8,458.7,37.1"/>
		<path class="st1" d="M356.7,160.1c-4.3-1.6-8.2-4-11.6-7.4c-0.3-0.3-0.5-0.5-0.8-0.9c-2.6,0.5-5.3,0.9-8.1,1.2
			c-1.2,0-2.2,0.1-3.5,0.1h-1.8h-0.7c-4,6.1-10.9,9.4-16.4,11.2C329.7,167.2,347.3,163,356.7,160.1"/>
		<path class="st1" d="M215.4,80.9c-0.1-0.5-0.3-0.9-0.4-1.4l-8.6-6c-0.5-0.4-0.9-0.9-0.9-1.6l-4.2-34c-3.1,1.7-6.6,3.6-7.7,4.4
			c-0.8,0.7-1.4,2.5-0.5,10.6c0.7,6.1,2.9,15.5,5,22.4C202.4,78.5,208.7,82.1,215.4,80.9"/>
		<path class="st1" d="M343.8,79.3c-0.9-0.1-1.7-0.8-2-1.7l-10.6-34.9c-1.8-0.3-3.4-0.4-4.7-0.4s-2.9,0.1-4.7,0.4l-10.3,33.9
			c-0.3,0.8-0.9,1.4-1.7,1.6l-5,1c-0.4,1.7-1.8,4.3-6.4,5.7c-7.4,2.2-54.1,16.2-59.3,15.4c-3.1-0.4-9-3.6-13.4-6.4
			c-1.7-4.2-2.7-6.9-3-7.6l0,0l0,0c0.7,1.8,6.6,19.3,19,36.5c13.3-3.9,24.8-7.6,28.4-8.7c7.4-11.5,18.1-22.9,25.7-23.3
			c1.3,0,2.6-0.1,4-0.1c3.6,0,7.2,0.3,10.6,0.7c-2.7-2.5-3.4-5.5-3.8-6.8c0,0,9.6,7.6,21.9,6s19.9-8.6,19.9-8.6l0.3-2.2L343.8,79.3"
			/>
		<path class="st1" d="M353.7,83.8c-2.6-0.7-4.2-1.7-5.2-2.9l-0.1,1.2c0,0,0,5.2-5.3,9.1c10.3-3.1,14.6-4.2,17.5-4.2
			c3.3,0,4.8,1.3,6.1,2.5c0.3,0.3,0.5,0.4,0.8,0.7c7.9,6.3,17.5,13.8,20.2,16c3.3,0.4,13.4,1.6,19.8,2.1c3.6,0.4,7,0.7,10.3,0.7
			c1,0,2.1,0,3-0.1c3.4-6.5,6.5-13.7,9.3-21.6c-3.8,2.6-12.5,8.5-16.6,9.3C408.4,97.6,361.2,85.6,353.7,83.8"/>
		<path class="st4" d="M472.6-38.5c-0.1-1.2-0.3-2.2-0.4-3.4c-0.1-0.8-0.3-1.6-0.4-2.3c-3-2.5-6.4-4.7-9.9-6.8
			c-3.8-2.2-7.8-4.3-11.9-6.1c-4-2-8.2-3.6-12.4-5.3c-2.1-0.9-4.2-1.7-6.4-2.5c-2.1-0.8-4.3-1.6-6.4-2.3c4.4,0.8,8.9,1.8,13.3,2.9
			c2.9,0.8,5.7,1.6,8.6,2.5c-20.2-52.7-68.3-86.9-120.9-86.9S225.2-114.6,205-61.9c2.9-0.9,5.7-1.7,8.6-2.5
			c4.4-1.2,8.9-2.2,13.3-2.9c-2.2,0.8-4.3,1.6-6.4,2.3c-2.1,0.8-4.2,1.6-6.3,2.5c-4.2,1.7-8.3,3.4-12.4,5.3c-4,1.8-8.1,3.9-11.9,6.1
			c-3.5,2.1-6.9,4.3-9.9,6.8c-0.1,0.8-0.3,1.6-0.4,2.3c-0.1,1-0.3,2.2-0.4,3.4c-0.1,2.2-0.3,4.4-0.3,6.8c0,4.6,0.3,9,0.8,13.6
			c0.7,4.4,1.4,9,2.6,13.3c0.7,2.1,1.3,4.3,2.1,6.4c0.4,1,0.8,2.1,1.3,3c0.3,0.5,0.4,0.9,0.7,1.4l0.3,0.5c0.4,0.1,0.7,0.4,1,0.5
			l2,0.9c1.2,0.5,2.6,1.3,3.9,1.8c0.1,0,0.1-0.1,0.3-0.1l-3.8-14.2c0.8-0.3,7.8-2.1,20.1-4.3c-0.9-0.1-2-0.4-3-0.7
			c-2.7-0.7-5.5-1.6-8.2-2.6c-1.3-0.5-2.6-1.2-3.8-1.8c-1.2-0.7-2.5-1.6-3.4-2.6c13.4,4.4,40.9,2.3,65.6-0.1
			c22.4-2.3,45-3.8,67.6-3.9c22.7,0,45.1,1.6,67.6,3.9c24.5,2.5,52.1,4.6,65.6,0.1c-0.9,1-2.2,1.8-3.4,2.6c-1.3,0.7-2.5,1.3-3.9,1.8
			c-2.6,1-5.3,2-8.2,2.6c-0.4,0.1-0.8,0.1-1.3,0.3c13.3,2.5,21.1,4.4,21.9,4.7l-3.5,13.4c0.8-0.3,1.4-0.7,2.1-0.9l2-0.9
			c0.4-0.1,0.7-0.4,1-0.5l0.3-0.5c0.3-0.5,0.5-0.9,0.7-1.4c0.4-1,0.9-2,1.3-3c0.8-2.1,1.4-4.2,2.1-6.4c1.2-4.3,2.1-8.7,2.6-13.3
			c0.5-4.4,0.9-9,0.8-13.6C472.9-33.9,472.8-36.1,472.6-38.5"/>
		<path class="st5" d="M381.3-64.7c0.3,6,0,16.9-2.7,27.2c-0.1,0.4-0.1,0.8,0,1.2c-3.5-0.4-7.2-0.7-10.7-1c4-8.5,4.8-17.3,5.1-20.5
			C375.9-60,379.1-62.6,381.3-64.7"/>
		<path class="st5" d="M279-57.8c0.1,3.1,1,12.1,5.1,20.5c-3.5,0.3-7.2,0.7-10.7,1c0.1-0.4,0.1-0.8,0-1.2c-2.7-10.2-3-21.1-2.7-27.2
			C272.9-62.6,275.9-60,279-57.8"/>
		<path class="st5" d="M425.2-27.9c0,0.1,0,0.3-0.1,0.3c0.4,0.1,0.8,0.3,1.2,0.4c3.3,1,6.6,2.2,9.8,3.6c-5.2-3.4-8.6-13.3-10.4-20.9
			C426.1-34.6,425.2-28.3,425.2-27.9"/>
		<path class="st5" d="M266.2-66.5l-34.1,9.6c-2.1,13.3-1.4,23.5-1,27l0.1-0.1c0,0,1.2-14.5,3.4-20.1c1.2-2.9,8.3-4.7,13.8-6
			c5.5-1.3,14.2-3.9,15.9,3.8c1,4.7,2.5,8.7,3.9,11.6C265.8-51.1,266-61.4,266.2-66.5"/>
		<path class="st5" d="M385.7-66.5c0.3,5.2,0.4,16.2-2.1,27.1c1.6-3,3.3-7.3,4.4-12.8c1.7-7.7,10.4-5.1,15.9-3.8s12.6,3.1,13.8,6
			c2,4.7,3,15.8,3.3,19c0.3-4.2,0.7-13.8-1.2-25.9L385.7-66.5"/>
		<path class="st5" d="M278.7-63.5c1.2,0.9,2.5,2,3.6,2.7c0.7,0.4,0.9,1,0.9,1.8c0,0.1,0.3,11.3,5.2,21c0.1,0.1,0.1,0.3,0.1,0.4
			c12.4-0.8,24.8-1.2,37.1-1.2c12.4,0,24.8,0.4,37.1,1.2c0-0.1,0.1-0.3,0.1-0.5c5-9.5,5.2-20.9,5.2-21c0-0.8,0.4-1.4,1-1.8
			c1.2-0.8,2.3-1.7,3.5-2.6l0.1-0.4c2.6-25.2-2.2-48.4-5.2-59.8c-0.1,7.8-2,74.9-18.6,74.9h-21.2h-3.5h-21.2
			c-17.7,0-19.2-75.6-19.2-75.6l-0.9,2.7C280.4-109.6,276.2-87.5,278.7-63.5"/>
		<path class="st5" d="M226.7-27.7c0-0.1,0-0.1-0.1-0.3c0-0.4-0.9-6.6-0.4-16.6c-1.8,7.6-5.2,17.5-10.6,20.9
			c3.1-1.4,6.5-2.6,9.8-3.6C225.9-27.4,226.3-27.5,226.7-27.7"/>
		<path class="st6" d="M439.5,73.9c-0.3,1.4-0.5,2.6-0.9,4.4c3.8,0.9,10,1.6,12.9,1c1.3-1.4,2.9-6.1,4.4-11.9
			C452.3,70.7,446.1,75.4,439.5,73.9"/>
		<path class="st6" d="M303.7,166.6c9,2.5,18.2,3.5,27.4,3c9.1-0.7,21-2.6,33.6-7.7c-2.9-0.3-5.6-0.8-8.2-1.7c-9.3,2.9-27,7-43,4.3
			c-4.3,1.4-7.6,1.8-7.9,1.8C305.1,166.4,304.5,166.5,303.7,166.6"/>
		<path class="st6" d="M215.9,82.8c-0.3-0.7-0.4-1.3-0.7-2.1c-6.6,1.2-13-2.3-17.3-5.6c1.4,4.6,2.9,8.1,3.9,9.1
			C205.2,84.9,212.4,83.9,215.9,82.8"/>
		<path class="st6" d="M225.8,94.1c4.4,2.6,10.3,5.9,13.4,6.4c5.3,0.8,52-13.2,59.3-15.4c4.6-1.4,6-3.9,6.4-5.7l-67.4,15
			c-0.1,0-0.4,0-0.5,0l0,0l0,0c-0.5,0-0.9-0.1-1.3-0.4l-2.6-1.8l-7.8-5.5l0,0l-3.1-2.2c0,0.1,0.1,0.4,0.1,0.5c0.1,0.5,0.4,1,0.5,1.6
			l0,0C223.1,87.1,224,90,225.8,94.1"/>
		<path class="st6" d="M432.2,81.1c0.4-1.6,0.9-3.3,1.2-4.8l-2.3,1.7l-6.3,4.4l-6.8,4.8c-0.4,0.3-0.8,0.4-1.2,0.4
			c-0.1,0-0.3,0-0.4,0L348.7,80l-0.1,1c1,1,2.6,2.1,5.2,2.9c7.4,2,54.7,13.8,59.9,12.8c4-0.8,12.8-6.6,16.6-9.3c0-0.1,0-0.1,0.1-0.3
			c0.3-0.8,0.5-1.7,0.9-2.6C431.6,83.4,431.9,82.2,432.2,81.1"/>
		<path class="st7" d="M360.6-10.2c-0.5,0.7-1.2,1.4-1.7,2.2c-3.3,4-7.7,9.3-12.9,14.3c-6.1-0.1-12.5-0.3-19-0.3
			c-10.7,0-21.1,0.3-30.9,0.8c13.8-5.7,30.5-11.3,48.5-14.7C349.8-8.8,355.1-9.7,360.6-10.2"/>
		<path class="st7" d="M279.6-4c-5,3.5-10.6,7.9-15.9,13.3c-13.8,1.4-25.9,3-35.8,4.7C243.1,6.9,260.6,0.5,279.6-4"/>
		<path class="st7" d="M448.7,24.6l-5.6,39.4l-27,18.9l-70.4-7.9L335.2,40c-0.3-0.8-0.9-1.4-1.8-1.6c-2.6-0.4-5-0.7-6.8-0.7
			c-2,0-4.2,0.3-6.9,0.7c-0.9,0.1-1.6,0.8-1.8,1.6l-10.3,34l-70,15.5l-27.8-19.4l-5.5-44.2c1.2-0.7,2.3-1.3,3.6-2
			c1.7-0.4,3.6-0.8,5.7-1.2l5.2,41.7c0.1,0.7,0.4,1.2,0.9,1.6l19,13.4c0.4,0.3,0.9,0.4,1.3,0.4c0.1,0,0.4,0,0.5,0l57.5-12.8
			c0.3,0,0.4-0.1,0.5-0.3c0.5-0.3,0.9-0.8,1.2-1.4l10.4-34.1c2.7-0.7,9.9-2.3,16.2-2.3c6.3,0,13.3,1.7,16.2,2.3l10.3,34.1
			c0.3,0.9,1,1.6,2,1.7l57.5,6.5c0.5,0,1.2-0.1,1.6-0.4l19-13.3c0.5-0.4,0.9-0.9,0.9-1.6l5.1-35.6C443.1,23.4,446.2,24.1,448.7,24.6
			"/>
		<path class="st7" d="M455.8-0.2l-5,18.8c-10.2-2.2-32.3-6.6-62.7-9.5c9.9-4.2,19.9-9.5,29.2-16.2C435.4-4.5,448.7-1.7,455.8-0.2"
			/>
		<path class="st7" d="M197.9-0.2l1.4,5.2c3.9-3.1,7.4-5.6,10.3-7.7C204.8-1.6,200.8-0.8,197.9-0.2"/>
		<path class="st8" d="M392.1-10.6c-7.6-0.4-15.1-0.8-22.7-1c-0.4,0.7-1.3,2-2.6,3.6c-4,5.5-12.1,15.5-22.3,24.1
			c7.7-2.5,38.3-12.8,54-26.3C396.3-10.3,394.2-10.5,392.1-10.6"/>
		<path class="st8" d="M336.6-12.6L336.6-12.6c-3.8,0-7.7-0.1-11.5-0.1l0,0c-5.6,0-11.3,0.1-16.9,0.1l-10.4,5c0,0-0.1,0-0.1,0.1
			c-1.6,0.8-15.2,7.7-28.2,19.9c1.2-0.7,2.3-1.2,3.5-1.8c7-4.7,25.8-15.9,55.1-23.3C330.9-12.7,333.7-12.7,336.6-12.6"/>
		<path class="st8" d="M272.5-11.4c-4.8,0.3-9.6,0.5-14.5,0.8c-5.6,0.3-11.2,0.7-16.7,1.2c-2.7,0.3-5.6,0.4-8.3,0.8
			c-0.8,0.1-1.6,0.1-2.3,0.3c-7.3,4.3-35.2,21.9-54.3,44.7c0.4-0.4,0.7-0.8,1-1.2C212.8,4.8,251.6-7,272.5-11.4"/>
		<path class="st8" d="M432.8,112.9c-0.3,0.1-0.4,0.3-0.7,0.4c-3.5,1.8-8.2,2.7-14.2,2.7c-3.5,0-7-0.3-10.9-0.7
			c-7.8-0.7-21-2.2-21.1-2.3l-1-0.1l-0.8-0.7c-0.1-0.1-11.6-9.3-21-16.6c-0.4-0.3-0.8-0.7-1-0.9c-1-0.8-1-0.8-1.6-0.8
			c-3,0-11.7,2.7-30.8,8.6l-1.2,0.4l-1.2-0.4c-0.1,0-12.6-4.7-27.6-4.7c-1.2,0-2.5,0-3.6,0.1c-1.4,0.1-9.9,4-20.7,21.1l-0.7,1
			l-1.3,0.4c-0.1,0-18.6,6-38.3,11.6l-1.3,0.4l-1.2-0.5c-0.1,0-7.8-3.6-15.1-6.9c0.5,0.3,1,0.5,1.6,0.8c7.2,6.3,21,18.2,22.5,19.8
			c0.3,0.3,0.5,0.5,0.9,0.9c-0.4-0.4-0.7-0.8-1-1.2l0,0l0,0l0,0c3.1,3,6.8,5.6,10.6,7.4c2,0.9,3.9,1.6,6,2c1,0.1,2.1,0.3,3.1,0.3
			c1,0,2.2,0,3.3-0.1c4.3-0.3,8.7-0.5,13-0.9c4.3-0.4,8.7-0.8,13-1.3c4.3-0.5,8.6-1,12.9-1.7c2.2-0.3,4.3-0.7,6.4-1.2
			c1-0.3,2.1-0.5,2.9-0.9c0.8-0.4,1.7-1,2.5-1.7c1.6-1.4,3.1-3,4.7-4.4c1.6-1.6,3-3.1,4.6-4.7c2.6-2.6,4.7-5.5,7.2-8.2
			c0.3-0.4,0.7-0.7,0.9-1l0,0l0,0c0.5,0.4,1,0.8,1.6,1.2c3,2.2,6,4.6,9,6.6c3.8,2.7,7.7,5.3,11.6,7.6c1,0.5,2.1,1,3,1.4
			c0.1,0,0.3,0.1,0.4,0.1s0.4,0.1,0.4,0.1c0.1,0,0.4,0,0.7,0c0.5,0,1,0,1.7,0c2.2-0.1,4.6-0.5,6.8-0.8c4.6-0.7,9.1-1.6,13.7-2.5
			s9.1-1.8,13.6-2.9c4.6-0.9,9.1-2.1,13.6-3.1c2.2-0.7,4.4-1.2,6.5-2.1c2.1-0.9,3.9-2.2,5.6-3.8c3.5-3,6.5-6.6,8.9-10.7l0,0
			C431.2,117.1,432.2,114.6,432.8,112.9"/>
		<path class="st8" d="M347.8-101.2h7.9v-16.3h-58.6v16.3h7.9v-8.2h16.6v50.2h-6.8v9.4h23.1v-9.4h-6.8v-50.3h16.6v8.3"/>
		<path class="st9" d="M408.5-9.4C408.5-9.6,408.4-9.6,408.5-9.4c-3.4-0.3-6.6-0.5-10-0.7h-0.1c-15.6,13.4-46.3,23.7-54,26.2
			c-0.1,0.1-0.3,0.3-0.4,0.4c9.9-1.8,24.8-5.3,40.3-12.1C391.8,1,399.5-3.2,407-8.3C407.4-8.6,407.9-9,408.5-9.4"/>
		<path class="st9" d="M328-12.7C298.8-5.3,279.9,6,272.9,10.6c5.6-2.9,12.4-6,19.8-9.3h0.1c0.8-0.3,1.6-0.7,2.3-0.9
			c0.3-0.1,0.5-0.3,0.8-0.3c0.7-0.3,1.3-0.5,2.1-0.8c0.4-0.1,0.8-0.3,1.2-0.4c0.7-0.3,1.3-0.5,1.8-0.8c0.5-0.1,0.9-0.4,1.4-0.5
			c0.5-0.3,1.2-0.4,1.7-0.7s1-0.4,1.7-0.7c0.5-0.3,1-0.4,1.6-0.5c0.7-0.3,1.3-0.4,1.8-0.7c0.5-0.1,1-0.4,1.4-0.5
			c0.8-0.3,1.4-0.5,2.2-0.8c0.4-0.1,0.8-0.3,1.2-0.4c1.2-0.4,2.3-0.8,3.5-1.2c2.6-0.8,5.2-1.6,7.9-2.3c3.5-0.9,7-1.8,10.7-2.6
			C333.7-12.7,330.9-12.7,328-12.7"/>
		<path class="st9" d="M272.5-11.4C251.6-7,212.8,4.8,177.3,35c-0.4,0.4-0.7,0.8-1,1.2c18-12.5,49-31.1,87.3-42.5
			c1.2-0.4,2.5-0.8,3.8-1c6.4-1.8,12.9-3.4,19.5-4.7C282.1-11.8,277.3-11.5,272.5-11.4"/>
		<path class="st9" d="M439.7,109.7c-0.1,0-0.3,0.1-0.4,0.1c-0.3,0.1-0.5,0.3-0.8,0.4c-0.3,0.1-0.4,0.1-0.7,0.3
			c-0.1,0.1-0.3,0.1-0.5,0.3c-0.3,0.1-0.5,0.3-0.8,0.4c-0.1,0-0.3,0.1-0.3,0.1c-0.3,0.1-0.5,0.3-0.8,0.4c0,0-0.1,0-0.1,0.1
			c-0.3,0.1-0.5,0.3-0.9,0.4c0,0,0,0-0.1,0c-0.7,0.3-1.2,0.7-1.8,0.9c-0.5,1.7-1.6,4.2-3.1,6.9l0,0l0,0l0,0c-2.5,4-5.3,7.7-8.9,10.7
			c-1.7,1.4-3.6,2.7-5.6,3.8c-2,0.9-4.2,1.6-6.5,2.1c-4.4,1.2-9,2.2-13.6,3.1c-4.6,1-9.1,2-13.6,2.9c-4.6,0.9-9.1,1.7-13.7,2.5
			c-2.2,0.4-4.6,0.7-6.8,0.8c-0.5,0-1.2,0-1.7,0c-0.3,0-0.5,0-0.7,0c0,0-0.3,0-0.4-0.1c-0.1,0-0.3,0-0.4-0.1c-1-0.3-2-0.8-3-1.4
			c-4-2.2-7.8-5-11.6-7.6c-3-2.1-6-4.4-9-6.6l-0.3,0.4l0,0c0.1,0.1,0.4,0.3,0.5,0.5l0,0c-0.1-0.1-0.3-0.3-0.4-0.3l2.5,3
			c0,0,0.1,0.1,0.3,0.4c1.3,1.4,6.5,7.7,12.9,13.9c4.8,4.7,10.6,7.2,17.2,7.2c2.2,0,4.7-0.3,7-0.9c2.2-0.5,4.7-1.2,7.2-1.7
			c7.3-1.7,15.5-3.6,20.9-5.1c0.4-0.1,0.7-0.1,1-0.3c0.8-0.3,1.4-0.4,2.1-0.5c0.9-0.3,2.1-0.5,3.3-0.8c6.5-1.6,15.5-3.6,20.3-13.2
			c1.3-2.6,2.7-5.5,4.3-8.5c2.1-4.2,4.3-8.3,6.3-12.1c0.3-0.7,0.7-1.2,0.9-1.7l0,0c0.1-0.3,0.3-0.7,0.5-0.9
			C440.5,109.3,440.1,109.4,439.7,109.7"/>
		<path class="st9" d="M332.3,130.2l-0.4-0.4c-2.5,2.7-4.7,5.6-7.2,8.2c-1.6,1.6-3,3.1-4.6,4.7c-1.6,1.6-3.1,3.1-4.7,4.4
			c-0.8,0.7-1.7,1.4-2.5,1.7c-0.8,0.4-1.8,0.7-2.9,0.9c-2.1,0.5-4.2,0.8-6.4,1.2c-4.3,0.7-8.6,1.2-12.9,1.7s-8.7,0.9-13,1.3
			c-4.3,0.4-8.7,0.8-13,0.9c-1,0-2.2,0.1-3.3,0.1s-2.1-0.1-3.1-0.3c-2.1-0.4-4-1-6-2c-3.9-1.8-7.4-4.4-10.6-7.4l0,0
			c0.4,0.5,0.9,1,1.3,1.6c-0.1-0.1-0.3-0.3-0.3-0.3c-0.4-0.4-0.7-0.7-0.9-0.9c-1.6-1.7-15.4-13.7-22.5-19.8c-0.5-0.3-1-0.5-1.6-0.8
			c1.3,2,2.7,3.9,4.2,6c2.1,3,4.3,6.1,6.5,9.1c1,1.3,2,2.6,2.9,3.8c7.8,10,17.7,19.4,36.6,19.4c2.3,0,5-0.1,7.4-0.4
			c0.7-0.1,1.2-0.1,1.8-0.3c0.5,0,1-0.1,1.7-0.1c16.4-2,21-2.7,23.5-3.1c0.7-0.1,1.2-0.3,1.8-0.3c0.3,0,0.5-0.1,0.8-0.1
			c0.1,0,5.6-0.8,11.1-3.4c3.8-1.8,7.4-4.6,9.3-8.6c4.6-10.2,5.5-12.6,5.5-12.8L332.3,130.2"/>
		<path class="st0" d="M377,37.6c2,0,3.6-1.7,3.5-3.8c0-2-1.7-3.6-3.8-3.5c-2,0-3.6,1.7-3.5,3.8C373.3,36.1,374.9,37.6,377,37.6
			L377,37.6z M399.4,54c-4.8-2.3-10,0.7-19.7,0.8c-7.2,0.3-13.2,0.4-13.6-10.8s4.2-20.5,11.3-20.7s13.7,8.6,14.6,19.8
			c0.3,3.1-0.1,5.3-0.9,7C397.8,49.2,399.3,53.8,399.4,54L399.4,54z"/>
		<path class="st0" d="M274.7,40.4c2,0,3.6-1.7,3.5-3.8c0-2.1-1.7-3.6-3.8-3.5c-2.1,0-3.6,1.7-3.5,3.8
			C270.9,38.8,272.6,40.4,274.7,40.4L274.7,40.4z M285.8,46.2c0.1,11.2-5.9,10.6-13,10.6c-0.8,0-1.4,0-2.1,0c-0.8,0-1.6,0-2.3,0
			c-6.9,0-11.3-0.4-15.2,1.8c0.1-0.3,1.8-4,8.1-5.6c-0.7-1.6-1.2-3.6-1.2-6.5c-0.4-11.2,6.5-20.5,13.7-20.5
			C280.5,25.9,285.6,35,285.8,46.2L285.8,46.2z"/>
		<path class="st0" d="M421-30.9c-0.1,1-0.1,1.7-0.1,2.1c-2.9-0.8-5.6-1.4-8.5-2.1c-9.4-2.1-19-3.6-28.5-4.7c-0.4,0-0.7,0-1-0.1
			c0-0.1,0.1-0.3,0.1-0.4c0.3-1,0.5-2.1,0.8-3.1c2.5-10.9,2.3-21.9,2.1-27.1l34.1,9.6C421.7-44.7,421.3-35.2,421-30.9L421-30.9z
			 M378.6-37.4c-0.1,0.4-0.1,0.8,0,1.2c-3.5-0.4-7.2-0.7-10.7-1c4-8.5,4.8-17.3,5.1-20.5c3.1-2.2,6.1-4.8,8.3-6.9
			C381.4-58.6,381.3-47.6,378.6-37.4L378.6-37.4z M273.4-36.3c0.1-0.4,0.1-0.8,0-1.2c-2.7-10.2-3-21.1-2.7-27.2
			c2.2,2.1,5.3,4.7,8.3,6.9c0.1,3.1,1,12.1,5.1,20.5C280.5-37.1,276.9-36.7,273.4-36.3L273.4-36.3z M268.2-35.8
			c-4.8,0.5-9.6,1.2-14.3,2c-4.8,0.8-9.5,1.7-14.2,2.7c-2.9,0.7-5.7,1.4-8.5,2.1c0-0.3,0-0.5-0.1-1c-0.4-3.5-0.9-13.7,1-27l34.1-9.6
			c-0.3,5.1-0.4,15.4,1.8,25.9c0.3,1.4,0.7,2.9,1,4.4c0,0.1,0.1,0.3,0.1,0.4C268.8-35.8,268.6-35.8,268.2-35.8L268.2-35.8z
			 M439.3-21.9c-0.3-0.1-0.5-0.3-0.9-0.4c-0.4-0.3-0.9-0.4-1.4-0.7l0,0c-0.3-0.1-0.7-0.3-0.9-0.5c-3.1-1.4-6.5-2.6-9.8-3.6
			c-0.4-0.1-0.8-0.3-1.2-0.4c0-0.1,0-0.3,0.1-0.3c0-0.4,0.9-6.6,0.4-16.6c-0.3-4.2-0.7-9.1-1.6-14.5c-0.1-0.9-0.8-1.6-1.6-1.8
			l-4.8-1.4c-1-37.7-16.6-55.4-17.1-55.9c13.8,22.3,13.7,48.7,13.4,54.9l-30.1-8.6c0,0,0,0-0.1,0c-0.1,0-0.3,0-0.4,0c0,0,0,0-0.1,0
			c-0.1,0-0.4,0-0.5,0c0,0,0,0-0.1,0s-0.3,0.1-0.4,0.1h-0.1c-0.1,0.1-0.3,0.1-0.3,0.3c0,0,0,0-0.1,0l0,0c0,0,0,0-0.1,0.1
			c0,0-0.8,0.8-2.1,2c0.1-2.9,0.1-7.2-0.3-12.4c0-0.5,0-1-0.1-1.6c-0.9-13.3-4-31.8-13.4-48.1c0.1,0.3,1,3,2.2,7.4
			c3,11.5,7.7,34.7,5.2,59.8c0,0.1,0,0.3,0,0.4c0,0-0.1,0-0.1,0.1c-1.2,0.9-2.3,1.8-3.5,2.6c-0.7,0.4-0.9,1-1,1.8
			c0,0.1-0.3,11.3-5.2,21c-0.1,0.1-0.1,0.3-0.1,0.5c-12.4-0.8-24.8-1.2-37.1-1.2c-12.4,0-24.8,0.4-37.1,1.2c0-0.1-0.1-0.3-0.1-0.4
			c-5-9.5-5.2-20.9-5.2-21c0-0.8-0.4-1.4-0.9-1.8c-1.2-0.8-2.5-1.8-3.6-2.7c-2.5-24,1.7-46.1,4.7-58.1c1.4-5.7,2.6-9.1,2.7-9.5
			c-13.6,23.6-14.1,52.1-13.7,62c-1.3-1.2-2.1-2-2.1-2s0,0-0.1-0.1l0,0c0,0,0,0-0.1,0c-0.1-0.1-0.3-0.1-0.3-0.1s-0.1,0-0.1-0.1
			c-0.1,0-0.3-0.1-0.4-0.1c0,0,0,0-0.1,0c-0.1,0-0.4,0-0.5,0h-0.1c-0.1,0-0.3,0-0.4,0c0,0,0,0-0.1,0l-30.2,8.5
			c-0.3-6.1-0.4-32.6,13.4-54.9c-0.5,0.5-16,18.2-17.1,55.9l-4.8,1.4c-0.8,0.3-1.4,0.9-1.6,1.8c-0.9,5.3-1.3,10.3-1.6,14.5
			c-0.5,9.9,0.4,16.2,0.4,16.6c0,0.1,0,0.1,0.1,0.3c-0.4,0.1-0.8,0.3-1.2,0.4c-3.3,1-6.6,2.2-9.8,3.6c-0.3,0.1-0.7,0.4-0.9,0.5l0,0
			c-0.5,0.3-1,0.5-1.4,0.7c-0.3,0.1-0.5,0.3-0.8,0.4c-0.1,0.1-0.3,0.1-0.5,0.3c2.2-0.9,4.6-1.6,6.9-2.1c2.3-0.5,4.7-1,7-1.6
			c4.7-0.9,9.4-1.7,14.1-2.2c4.7-0.7,9.5-1.2,14.2-1.6s9.5-0.8,14.2-1c19-1.2,38.2-1.4,57.2-1.4c19.2,0,38.2,0.3,57.2,1.4
			c4.8,0.3,9.5,0.7,14.2,1c4.8,0.4,9.5,0.9,14.2,1.6c4.7,0.5,9.5,1.3,14.1,2.2c2.3,0.4,4.7,0.9,7,1.6c2.3,0.5,4.7,1.2,6.9,2.1
			C439.5-21.8,439.4-21.9,439.3-21.9L439.3-21.9z"/>
		<path class="st0" d="M331.2-109.4v50.2h6.8v9.4H315v-9.4h6.8v-50.3h-16.6v8.2h-7.9v-16.3h58.6v16.3h-7.9v-8.2L331.2-109.4
			L331.2-109.4L331.2-109.4z M361.9-95.2v-28.3h-70.6v28.3h20.1v-8.2h4.6v38.2h-6.8v21.4h35.1v-21.4h-6.8v-38.2h4.6v8.2L361.9-95.2
			L361.9-95.2z"/>
	</g>
</g>
</svg>
